SplineFontDB: 3.0
FontName: ScidbSymbolTraveller
FullName: Scidb Symbol Traveller
FamilyName: Scidb Symbol Traveller
Weight: Standard
Copyright: 
Version: 1.0
ItalicAngle: 0
UnderlinePosition: 0
UnderlineWidth: 0
Ascent: 1638
Descent: 410
LayerCount: 2
Layer: 0 1 "Back"  1
Layer: 1 1 "Fore"  0
NeedsXUIDChange: 1
XUID: [1021 973 2061925148 1595020]
FSType: 0
OS2Version: 0
OS2_WeightWidthSlopeOnly: 0
OS2_UseTypoMetrics: 0
CreationTime: 1236613800
ModificationTime: 1382011956
PfmFamily: 17
TTFWeight: 400
TTFWidth: 5
LineGap: -147
VLineGap: 0
Panose: 2 11 6 3 5 3 2 2 2 4
OS2TypoAscent: 2195
OS2TypoAOffset: 1
OS2TypoDescent: 0
OS2TypoDOffset: 1
OS2TypoLinegap: 0
OS2WinAscent: 0
OS2WinAOffset: 1
OS2WinDescent: 0
OS2WinDOffset: 1
HheadAscent: 0
HheadAOffset: 1
HheadDescent: 0
HheadDOffset: 1
OS2SubXSize: 0
OS2SubYSize: 0
OS2SubXOff: 0
OS2SubYOff: 0
OS2SupXSize: 0
OS2SupYSize: 0
OS2SupXOff: 0
OS2SupYOff: 0
OS2StrikeYSize: 0
OS2StrikeYPos: 0
OS2Vendor: 'PfEd'
DEI: 91125
TtTable: prep
PUSHW_1
 0
CALL
EndTTInstrs
TtTable: fpgm
PUSHW_1
 0
FDEF
MPPEM
PUSHW_1
 8
LT
IF
PUSHB_2
 1
 1
INSTCTRL
EIF
PUSHW_1
 511
SCANCTRL
PUSHW_1
 68
SCVTCI
PUSHW_2
 8
 3
SDS
SDB
ENDF
PUSHW_1
 1
FDEF
DUP
DUP
RCVT
ROUND[Black]
WCVTP
PUSHB_1
 1
ADD
ENDF
PUSHW_1
 2
FDEF
PUSHW_1
 1
LOOPCALL
POP
ENDF
PUSHW_1
 3
FDEF
DUP
GC[cur]
PUSHB_1
 3
CINDEX
GC[cur]
GT
IF
SWAP
EIF
DUP
ROLL
DUP
ROLL
MD[grid]
ABS
ROLL
DUP
GC[cur]
DUP
ROUND[Grey]
SUB
ABS
PUSHB_1
 4
CINDEX
GC[cur]
DUP
ROUND[Grey]
SUB
ABS
GT
IF
SWAP
NEG
ROLL
EIF
MDAP[rnd]
DUP
PUSHB_1
 0
GTEQ
IF
ROUND[Black]
DUP
PUSHB_1
 0
EQ
IF
POP
PUSHB_1
 64
EIF
ELSE
ROUND[Black]
DUP
PUSHB_1
 0
EQ
IF
POP
PUSHB_1
 64
NEG
EIF
EIF
MSIRP[no-rp0]
ENDF
PUSHW_1
 4
FDEF
DUP
GC[cur]
PUSHB_1
 4
CINDEX
GC[cur]
GT
IF
SWAP
ROLL
EIF
DUP
GC[cur]
DUP
ROUND[White]
SUB
ABS
PUSHB_1
 4
CINDEX
GC[cur]
DUP
ROUND[White]
SUB
ABS
GT
IF
SWAP
ROLL
EIF
MDAP[rnd]
MIRP[rp0,min,rnd,black]
ENDF
PUSHW_1
 5
FDEF
MPPEM
DUP
PUSHB_1
 3
MINDEX
LT
IF
LTEQ
IF
PUSHB_1
 128
WCVTP
ELSE
PUSHB_1
 64
WCVTP
EIF
ELSE

StartChar: plus
Encoding: 43 43 0
Width: 2048
Flags: WO
LayerCount: 2
Fore
SplineSet
940 1656 m 1,0,-1
 1098 1656 l 1,1,-1
 1098 1065 l 1,2,-1
 1842 1065 l 5,3,-1
 1842 945 l 1,4,-1
 1098 945 l 1,5,-1
 1098 201 l 1,6,-1
 940 201 l 1,7,-1
 940 945 l 1,8,-1
 195 945 l 1,9,-1
 195 1065 l 1,10,-1
 940 1065 l 1,11,-1
 940 1656 l 1,0,-1
EndSplineSet
Validated: 1
EndChar

StartChar: hyphen
Encoding: 45 45 1
Width: 2048
Flags: HWO
LayerCount: 2
Fore
SplineSet
1842 1065 m 5,0,-1
 1842 945 l 1,1,-1
 195 945 l 1,2,-1
 195 1065 l 1,3,-1
 1842 1065 l 5,0,-1
EndSplineSet
Validated: 1
EndChar

StartChar: quoteleft
Encoding: 8216 8216 3
Width: 2048
Flags: W
LayerCount: 2
Fore
SplineSet
1434 1214 m 0,0,1
 1592 1214 1592 1214 1704.5 1117 c 128,-1,2
 1817 1020 1817 1020 1817 884 c 0,3,4
 1817 746 1817 746 1704.5 649.5 c 128,-1,5
 1592 553 1592 553 1434 553 c 0,6,7
 1307 553 1307 553 1207 617.5 c 128,-1,8
 1107 682 1107 682 1070 782 c 1,9,10
 1038 674 1038 674 935 603.5 c 128,-1,11
 832 533 832 533 699 533 c 0,12,13
 540 533 540 533 428 629.5 c 128,-1,14
 316 726 316 726 316 863 c 0,15,16
 316 1000 316 1000 428 1097 c 128,-1,17
 540 1194 540 1194 699 1194 c 0,18,19
 826 1194 826 1194 925.5 1129.5 c 128,-1,20
 1025 1065 1025 1065 1063 966 c 1,21,22
 1095 1072 1095 1072 1197.5 1143 c 128,-1,23
 1300 1214 1300 1214 1434 1214 c 0,0,1
709 1134 m 0,24,25
 583 1134 583 1134 493.5 1057.5 c 128,-1,26
 404 981 404 981 404 873 c 0,27,28
 404 765 404 765 493.5 689 c 128,-1,29
 583 613 583 613 709 613 c 0,30,31
 835 613 835 613 924 689 c 128,-1,32
 1013 765 1013 765 1013 873 c 0,33,34
 1013 981 1013 981 924 1057.5 c 128,-1,35
 835 1134 835 1134 709 1134 c 0,24,25
1425 1148 m 0,36,37
 1299 1148 1299 1148 1209.5 1071 c 128,-1,38
 1120 994 1120 994 1120 887 c 0,39,40
 1120 779 1120 779 1209.5 702.5 c 128,-1,41
 1299 626 1299 626 1425 626 c 0,42,43
 1551 626 1551 626 1640 702.5 c 128,-1,44
 1729 779 1729 779 1729 887 c 0,45,46
 1729 994 1729 994 1640 1071 c 128,-1,47
 1551 1148 1551 1148 1425 1148 c 0,36,37
EndSplineSet
Validated: 1
EndChar

StartChar: quoteright
Encoding: 8217 8217 4
Width: 2048
Flags: W
LayerCount: 2
Fore
SplineSet
1434 1214 m 0,0,1
 1592 1214 1592 1214 1704.5 1117 c 128,-1,2
 1817 1020 1817 1020 1817 884 c 0,3,4
 1817 746 1817 746 1704.5 649.5 c 128,-1,5
 1592 553 1592 553 1434 553 c 0,6,7
 1307 553 1307 553 1207 617.5 c 128,-1,8
 1107 682 1107 682 1070 782 c 1,9,10
 1038 674 1038 674 935 603.5 c 128,-1,11
 832 533 832 533 699 533 c 0,12,13
 540 533 540 533 428 629.5 c 128,-1,14
 316 726 316 726 316 863 c 0,15,16
 316 1000 316 1000 428 1097 c 128,-1,17
 540 1194 540 1194 699 1194 c 0,18,19
 826 1194 826 1194 925.5 1129.5 c 128,-1,20
 1025 1065 1025 1065 1063 966 c 1,21,22
 1095 1072 1095 1072 1197.5 1143 c 128,-1,23
 1300 1214 1300 1214 1434 1214 c 0,0,1
709 1134 m 0,24,25
 583 1134 583 1134 493.5 1057.5 c 128,-1,26
 404 981 404 981 404 873 c 0,27,28
 404 765 404 765 493.5 689 c 128,-1,29
 583 613 583 613 709 613 c 0,30,31
 835 613 835 613 924 689 c 128,-1,32
 1013 765 1013 765 1013 873 c 0,33,34
 1013 981 1013 981 924 1057.5 c 128,-1,35
 835 1134 835 1134 709 1134 c 0,24,25
1425 1148 m 0,36,37
 1299 1148 1299 1148 1209.5 1071 c 128,-1,38
 1120 994 1120 994 1120 887 c 0,39,40
 1120 779 1120 779 1209.5 702.5 c 128,-1,41
 1299 626 1299 626 1425 626 c 0,42,43
 1551 626 1551 626 1640 702.5 c 128,-1,44
 1729 779 1729 779 1729 887 c 0,45,46
 1729 994 1729 994 1640 1071 c 128,-1,47
 1551 1148 1551 1148 1425 1148 c 0,36,37
EndSplineSet
Validated: 1
EndChar

StartChar: exclamdown
Encoding: 161 161 5
Width: 2048
Flags: W
LayerCount: 2
Fore
SplineSet
1434 1214 m 0,0,1
 1592 1214 1592 1214 1704.5 1117 c 128,-1,2
 1817 1020 1817 1020 1817 884 c 0,3,4
 1817 746 1817 746 1704.5 649.5 c 128,-1,5
 1592 553 1592 553 1434 553 c 0,6,7
 1307 553 1307 553 1207 617.5 c 128,-1,8
 1107 682 1107 682 1070 782 c 1,9,10
 1038 674 1038 674 935 603.5 c 128,-1,11
 832 533 832 533 699 533 c 0,12,13
 540 533 540 533 428 629.5 c 128,-1,14
 316 726 316 726 316 863 c 0,15,16
 316 1000 316 1000 428 1097 c 128,-1,17
 540 1194 540 1194 699 1194 c 0,18,19
 826 1194 826 1194 925.5 1129.5 c 128,-1,20
 1025 1065 1025 1065 1063 966 c 1,21,22
 1095 1072 1095 1072 1197.5 1143 c 128,-1,23
 1300 1214 1300 1214 1434 1214 c 0,0,1
709 1134 m 0,24,25
 583 1134 583 1134 493.5 1057.5 c 128,-1,26
 404 981 404 981 404 873 c 0,27,28
 404 765 404 765 493.5 689 c 128,-1,29
 583 613 583 613 709 613 c 0,30,31
 835 613 835 613 924 689 c 128,-1,32
 1013 765 1013 765 1013 873 c 0,33,34
 1013 981 1013 981 924 1057.5 c 128,-1,35
 835 1134 835 1134 709 1134 c 0,24,25
1425 1148 m 0,36,37
 1299 1148 1299 1148 1209.5 1071 c 128,-1,38
 1120 994 1120 994 1120 887 c 0,39,40
 1120 779 1120 779 1209.5 702.5 c 128,-1,41
 1299 626 1299 626 1425 626 c 0,42,43
 1551 626 1551 626 1640 702.5 c 128,-1,44
 1729 779 1729 779 1729 887 c 0,45,46
 1729 994 1729 994 1640 1071 c 128,-1,47
 1551 1148 1551 1148 1425 1148 c 0,36,37
EndSplineSet
Validated: 1
EndChar

StartChar: WhiteSlightAdvantage
Encoding: 61454 61454 6
Width: 2048
Flags: W
LayerCount: 2
Fore
SplineSet
1010 1668 m 1,0,-1
 1129 1668 l 1,1,-1
 1129 658 l 1,2,-1
 1010 658 l 1,3,-1
 1010 1668 l 1,0,-1
463 539 m 1,4,-1
 1699 539 l 1,5,-1
 1699 448 l 1,6,-1
 463 448 l 1,7,-1
 463 539 l 1,4,-1
451 1257 m 1,8,-1
 1687 1257 l 1,9,-1
 1687 1174 l 1,10,-1
 451 1174 l 1,11,-1
 451 1257 l 1,8,-1
474 244 m 1,12,-1
 1710 244 l 1,13,-1
 1710 147 l 1,14,-1
 474 147 l 1,15,-1
 474 244 l 1,12,-1
EndSplineSet
Validated: 5
EndChar

StartChar: BlackSlightAdvantage
Encoding: 61455 61455 7
Width: 2048
Flags: W
LayerCount: 2
Fore
SplineSet
1010 1072 m 1,0,-1
 1151 1072 l 1,1,-1
 1151 85 l 1,2,-1
 1010 85 l 1,3,-1
 1010 1072 l 1,0,-1
451 684 m 1,4,-1
 1687 684 l 1,5,-1
 1687 573 l 1,6,-1
 451 573 l 1,7,-1
 451 684 l 1,4,-1
446 1669 m 1,8,-1
 1682 1669 l 1,9,-1
 1682 1578 l 1,10,-1
 446 1578 l 1,11,-1
 446 1669 l 1,8,-1
457 1373 m 1,12,-1
 1693 1373 l 1,13,-1
 1693 1277 l 1,14,-1
 457 1277 l 1,15,-1
 457 1373 l 1,12,-1
EndSplineSet
Validated: 5
EndChar

StartChar: WhiteModerateAdvantage
Encoding: 61456 61456 8
Width: 2048
Flags: W
LayerCount: 2
Fore
SplineSet
451 1087 m 1,0,-1
 1687 1087 l 1,1,-1
 1687 1004 l 1,2,-1
 451 1004 l 1,3,-1
 451 1087 l 1,0,-1
1010 1498 m 1,4,-1
 1129 1498 l 1,5,-1
 1129 488 l 1,6,-1
 1010 488 l 1,7,-1
 1010 1498 l 1,4,-1
452 300 m 1,8,-1
 1688 300 l 1,9,-1
 1688 204 l 1,10,-1
 452 204 l 1,11,-1
 452 300 l 1,8,-1
EndSplineSet
Validated: 5
EndChar

StartChar: Adieresis
Encoding: 196 196 9
Width: 2048
Flags: W
LayerCount: 2
Fore
SplineSet
1503 1403 m 0,0,1
 1369 1403 1369 1403 1260.5 1281 c 128,-1,2
 1152 1159 1152 1159 1135 994 c 1,3,4
 1177 849 1177 849 1287 770.5 c 128,-1,5
 1397 692 1397 692 1531 692 c 1,6,7
 1664 718 1664 718 1722.5 808 c 128,-1,8
 1781 898 1781 898 1781 1033 c 0,9,10
 1781 1168 1781 1168 1708.5 1285.5 c 128,-1,11
 1636 1403 1636 1403 1503 1403 c 0,0,1
1479 1503 m 0,12,13
 1647 1503 1647 1503 1766 1358 c 128,-1,14
 1885 1213 1885 1213 1885 1029 c 0,15,16
 1885 844 1885 844 1788.5 679.5 c 128,-1,17
 1692 515 1692 515 1524 515 c 0,18,19
 1389 515 1389 515 1255 624.5 c 128,-1,20
 1121 734 1121 734 1082 869 c 1,21,22
 1048 724 1048 724 921.5 640 c 128,-1,23
 795 556 795 556 654 556 c 0,24,25
 486 556 486 556 384 675 c 128,-1,26
 282 794 282 794 282 979 c 0,27,28
 282 1163 282 1163 375.5 1291 c 128,-1,29
 469 1419 469 1419 637 1419 c 0,30,31
 772 1419 772 1419 903 1334.5 c 128,-1,32
 1034 1250 1034 1250 1074 1117 c 1,33,34
 1107 1261 1107 1261 1222 1382 c 128,-1,35
 1337 1503 1337 1503 1479 1503 c 0,12,13
699 1277 m 1,36,37
 540 1280 540 1280 458 1190.5 c 128,-1,38
 376 1101 376 1101 376 967 c 0,39,40
 376 832 376 832 470.5 736 c 128,-1,41
 565 640 565 640 699 640 c 0,42,43
 831 640 831 640 933.5 737 c 128,-1,44
 1036 834 1036 834 1027 973 c 1,45,46
 976 1073 976 1073 935.5 1151 c 128,-1,47
 895 1229 895 1229 699 1277 c 1,36,37
EndSplineSet
Validated: 33
EndChar

StartChar: Aring
Encoding: 197 197 10
Width: 2048
Flags: W
LayerCount: 2
Fore
SplineSet
290 1373 m 1,0,-1
 1891 1373 l 1,1,-1
 1891 1277 l 1,2,-1
 290 1277 l 1,3,-1
 290 1373 l 1,0,-1
276 1669 m 1,4,-1
 1877 1669 l 1,5,-1
 1877 1578 l 1,6,-1
 276 1578 l 1,7,-1
 276 1669 l 1,4,-1
1480 1034 m 0,8,9
 1347 1034 1347 1034 1238 912 c 128,-1,10
 1129 790 1129 790 1112 625 c 1,11,12
 1154 481 1154 481 1264.5 402.5 c 128,-1,13
 1375 324 1375 324 1508 324 c 1,14,15
 1641 349 1641 349 1699.5 439 c 128,-1,16
 1758 529 1758 529 1758 665 c 0,17,18
 1758 800 1758 800 1685.5 917 c 128,-1,19
 1613 1034 1613 1034 1480 1034 c 0,8,9
1456 1135 m 0,20,21
 1624 1135 1624 1135 1743 989.5 c 128,-1,22
 1862 844 1862 844 1862 660 c 0,23,24
 1862 475 1862 475 1765.5 310.5 c 128,-1,25
 1669 146 1669 146 1502 146 c 0,26,27
 1367 146 1367 146 1232.5 255.5 c 128,-1,28
 1098 365 1098 365 1059 500 c 1,29,30
 1025 355 1025 355 898.5 271 c 128,-1,31
 772 187 772 187 631 187 c 0,32,33
 463 187 463 187 361 306 c 128,-1,34
 259 425 259 425 259 610 c 0,35,36
 259 794 259 794 353 922 c 128,-1,37
 447 1050 447 1050 615 1050 c 0,38,39
 749 1050 749 1050 880 966 c 128,-1,40
 1011 882 1011 882 1051 748 c 1,41,42
 1084 892 1084 892 1199.5 1013.5 c 128,-1,43
 1315 1135 1315 1135 1456 1135 c 0,20,21
676 908 m 1,44,45
 517 911 517 911 435 822 c 128,-1,46
 353 733 353 733 353 598 c 0,47,48
 353 463 353 463 447.5 367 c 128,-1,49
 542 271 542 271 676 271 c 0,50,51
 809 271 809 271 911 368 c 128,-1,52
 1013 465 1013 465 1004 604 c 1,53,54
 953 704 953 704 912.5 782 c 128,-1,55
 872 860 872 860 676 908 c 1,44,45
EndSplineSet
Validated: 33
EndChar

StartChar: BlackZugzwang
Encoding: 61463 61463 11
Width: 2048
Flags: W
LayerCount: 2
Fore
SplineSet
1069 1481 m 0,0,1
 839 1481 839 1481 676.5 1322.5 c 128,-1,2
 514 1164 514 1164 514 942 c 0,3,4
 514 719 514 719 676.5 561 c 128,-1,5
 839 403 839 403 1069 403 c 0,6,7
 1299 403 1299 403 1462 561 c 128,-1,8
 1625 719 1625 719 1625 942 c 0,9,10
 1625 1164 1625 1164 1462 1322.5 c 128,-1,11
 1299 1481 1299 1481 1069 1481 c 0,0,1
1069 1611 m 0,12,13
 1359 1611 1359 1611 1565.5 1416 c 128,-1,14
 1772 1221 1772 1221 1772 947 c 0,15,16
 1772 673 1772 673 1565.5 478 c 128,-1,17
 1359 283 1359 283 1069 283 c 0,18,19
 779 283 779 283 573 478 c 128,-1,20
 367 673 367 673 367 947 c 0,21,22
 367 1221 367 1221 573 1416 c 128,-1,23
 779 1611 779 1611 1069 1611 c 0,12,13
1069 1061 m 0,24,25
 1126 1061 1126 1061 1167 1023.5 c 128,-1,26
 1208 986 1208 986 1208 933 c 0,27,28
 1208 880 1208 880 1167 843 c 128,-1,29
 1126 806 1126 806 1069 806 c 0,30,31
 1012 806 1012 806 971.5 843 c 128,-1,32
 931 880 931 880 931 933 c 0,33,34
 931 986 931 986 971.5 1023.5 c 128,-1,35
 1012 1061 1012 1061 1069 1061 c 0,24,25
EndSplineSet
Validated: 1
EndChar

StartChar: Eacute
Encoding: 201 201 12
Width: 2048
Flags: W
LayerCount: 2
Fore
SplineSet
992 170 m 1,0,-1
 993 1383 l 1,1,-1
 741 1227 l 1,2,-1
 1074 1641 l 1,3,-1
 1375 1236 l 1,4,-1
 1156 1375 l 1,5,-1
 1156 167 l 1,6,-1
 992 170 l 1,0,-1
EndSplineSet
Validated: 1
EndChar

StartChar: Ecircumflex
Encoding: 202 202 13
Width: 2048
Flags: W
LayerCount: 2
Fore
SplineSet
361 743 m 1,0,-1
 1574 746 l 1,1,-1
 1462 999 l 1,2,-1
 1834 669 l 1,3,-1
 1490 358 l 1,4,-1
 1569 583 l 1,5,-1
 361 584 l 1,6,-1
 361 743 l 1,0,-1
1817 1062 m 1,7,-1
 604 1068 l 1,8,-1
 738 809 l 1,9,-1
 345 1146 l 1,10,-1
 781 1479 l 1,11,-1
 610 1230 l 1,12,-1
 1818 1221 l 1,13,-1
 1817 1062 l 1,7,-1
EndSplineSet
Validated: 1
EndChar

StartChar: Egrave
Encoding: 200 200 14
Width: 2048
Flags: W
LayerCount: 2
Fore
SplineSet
344 998 m 1,0,-1
 1557 1001 l 1,1,-1
 1417 1288 l 1,2,-1
 1817 925 l 1,3,-1
 1416 568 l 1,4,-1
 1552 838 l 1,5,-1
 344 840 l 1,6,-1
 344 998 l 1,0,-1
EndSplineSet
Validated: 1
EndChar

StartChar: Igrave
Encoding: 204 204 15
Width: 2048
Flags: W
LayerCount: 2
Fore
SplineSet
769 1214 m 1,0,-1
 769 1708 l 1,1,-1
 866 1707 l 1,2,-1
 866 1214 l 1,3,-1
 1263 1214 l 1,4,-1
 1263 1708 l 1,5,-1
 1354 1708 l 1,6,-1
 1354 1214 l 1,7,-1
 1860 1214 l 1,8,-1
 1860 1124 l 1,9,-1
 1354 1124 l 1,10,-1
 1354 726 l 1,11,-1
 1868 726 l 1,12,-1
 1868 630 l 1,13,-1
 1354 630 l 1,14,-1
 1354 108 l 1,15,-1
 1263 108 l 1,16,-1
 1263 630 l 1,17,-1
 866 630 l 1,18,-1
 866 101 l 1,19,-1
 769 102 l 1,20,-1
 769 630 l 1,21,-1
 268 630 l 1,22,-1
 268 726 l 1,23,-1
 769 726 l 1,24,-1
 769 1124 l 1,25,-1
 260 1124 l 1,26,-1
 260 1214 l 1,27,-1
 769 1214 l 1,0,-1
866 1124 m 1,28,-1
 866 726 l 1,29,-1
 1263 726 l 1,30,-1
 1263 1124 l 1,31,-1
 866 1124 l 1,28,-1
EndSplineSet
Validated: 1
EndChar

StartChar: Iacute
Encoding: 205 205 16
Width: 2048
Flags: W
LayerCount: 2
Fore
SplineSet
1067 1714 m 1,0,-1
 1868 108 l 1,1,-1
 254 108 l 1,2,-1
 1067 1714 l 1,0,-1
1063 1458 m 1,3,-1
 440 215 l 1,4,-1
 1676 215 l 1,5,-1
 1063 1458 l 1,3,-1
EndSplineSet
Validated: 1
EndChar

StartChar: Ntilde
Encoding: 209 209 17
Width: 2048
Flags: W
LayerCount: 2
Fore
SplineSet
1369 1150 m 1,0,-1
 1285 1235 l 2,1,2
 1280 1240 1280 1240 1276 1236 c 2,3,-1
 547 505 l 1,4,-1
 449 593 l 1,5,-1
 1176 1325 l 1,6,-1
 920 1492 l 1,7,-1
 1621 1498 l 1,8,-1
 1617 838 l 1,9,-1
 1483 1049 l 1,10,-1
 765 317 l 1,11,-1
 649 420 l 1,12,-1
 1369 1150 l 1,0,-1
EndSplineSet
Validated: 1
EndChar

StartChar: Ograve
Encoding: 210 210 18
Width: 2048
Flags: W
LayerCount: 2
Fore
SplineSet
254 108 m 1,0,-1
 254 1719 l 1,1,-1
 1874 1719 l 1,2,-1
 1874 108 l 1,3,-1
 254 108 l 1,0,-1
451 238 m 1,4,-1
 1699 238 l 1,5,-1
 1699 1566 l 1,6,-1
 451 1566 l 1,7,-1
 451 238 l 1,4,-1
976 993 m 1,8,-1
 976 1464 l 1,9,-1
 1168 1464 l 1,10,-1
 1168 993 l 1,11,-1
 1592 993 l 1,12,-1
 1592 823 l 1,13,-1
 1168 823 l 1,14,-1
 1168 352 l 1,15,-1
 976 352 l 1,16,-1
 976 823 l 1,17,-1
 559 823 l 1,18,-1
 559 993 l 1,19,-1
 976 993 l 1,8,-1
EndSplineSet
Validated: 1
EndChar

StartChar: Oacute
Encoding: 211 211 19
Width: 2048
Flags: W
LayerCount: 2
Fore
SplineSet
834 253 m 1,0,-1
 1766 963 l 1,1,-1
 826 1631 l 1,2,-1
 929 1742 l 1,3,-1
 1953 963 l 1,4,-1
 945 164 l 1,5,-1
 834 253 l 1,0,-1
389 248 m 1,6,-1
 1321 957 l 1,7,-1
 380 1626 l 1,8,-1
 483 1736 l 1,9,-1
 1507 958 l 1,10,-1
 500 159 l 1,11,-1
 389 248 l 1,6,-1
EndSplineSet
Validated: 1
EndChar

StartChar: Ocircumflex
Encoding: 212 212 20
Width: 2048
Flags: W
LayerCount: 2
Fore
SplineSet
1497 1648 m 1,0,-1
 566 937 l 1,1,-1
 1508 270 l 1,2,-1
 1405 159 l 1,3,-1
 380 936 l 1,4,-1
 1386 1737 l 1,5,-1
 1497 1648 l 1,0,-1
1943 1654 m 1,6,-1
 1012 943 l 1,7,-1
 1954 276 l 1,8,-1
 1851 165 l 1,9,-1
 826 942 l 1,10,-1
 1832 1743 l 1,11,-1
 1943 1654 l 1,6,-1
EndSplineSet
Validated: 1
EndChar

StartChar: Otilde
Encoding: 213 213 21
Width: 2048
Flags: W
LayerCount: 2
Fore
SplineSet
556 1429 m 1,0,-1
 647 1505 l 1,1,-1
 1064 1000 l 1,2,-1
 1476 1517 l 1,3,-1
 1569 1444 l 1,4,-1
 1141 907 l 1,5,-1
 1584 370 l 1,6,-1
 1493 294 l 1,7,-1
 1066 812 l 1,8,-1
 651 293 l 1,9,-1
 558 366 l 1,10,-1
 988 906 l 1,11,-1
 556 1429 l 1,0,-1
EndSplineSet
Validated: 1
EndChar

StartChar: multiply
Encoding: 215 215 22
Width: 2048
Flags: W
LayerCount: 2
Fore
SplineSet
767 1263 m 1,0,-1
 767 1645 l 1,1,-1
 1817 1645 l 1,2,-1
 1817 734 l 1,3,-1
 1360 734 l 1,4,-1
 1360 352 l 1,5,-1
 310 352 l 1,6,-1
 310 1263 l 1,7,-1
 767 1263 l 1,0,-1
910 1263 m 1,8,-1
 1360 1263 l 1,9,-1
 1360 866 l 1,10,-1
 1682 866 l 1,11,-1
 1682 1513 l 1,12,-1
 910 1513 l 1,13,-1
 910 1263 l 1,8,-1
1225 734 m 1,14,-1
 767 734 l 1,15,-1
 767 1131 l 1,16,-1
 453 1131 l 1,17,-1
 453 484 l 1,18,-1
 1225 484 l 1,19,-1
 1225 734 l 1,14,-1
910 1131 m 1,20,-1
 910 866 l 1,21,-1
 1225 866 l 1,22,-1
 1225 1131 l 1,23,-1
 910 1131 l 1,20,-1
EndSplineSet
Validated: 1
EndChar

StartChar: Oslash
Encoding: 216 216 23
Width: 2048
Flags: W
LayerCount: 2
Fore
SplineSet
1225 734 m 1,0,-1
 767 734 l 1,1,-1
 767 1131 l 1,2,-1
 453 1131 l 1,3,-1
 453 484 l 1,4,-1
 1225 484 l 1,5,-1
 1225 734 l 1,0,-1
767 1263 m 1,6,-1
 767 1645 l 1,7,-1
 1817 1645 l 1,8,-1
 1817 734 l 1,9,-1
 1360 734 l 1,10,-1
 1360 352 l 1,11,-1
 310 352 l 1,12,-1
 310 1263 l 1,13,-1
 767 1263 l 1,6,-1
EndSplineSet
Validated: 1
EndChar

StartChar: Ugrave
Encoding: 217 217 24
Width: 2048
Flags: W
LayerCount: 2
Fore
SplineSet
767 1263 m 1,0,-1
 767 1645 l 1,1,-1
 1817 1645 l 1,2,-1
 1817 734 l 1,3,-1
 1360 734 l 1,4,-1
 1360 352 l 1,5,-1
 310 352 l 1,6,-1
 310 1263 l 1,7,-1
 767 1263 l 1,0,-1
EndSplineSet
Validated: 1
EndChar

StartChar: Thorn
Encoding: 222 222 25
Width: 2048
Flags: W
LayerCount: 2
Fore
SplineSet
389 378 m 1,0,-1
 1592 997 l 1,1,-1
 391 1557 l 1,2,-1
 494 1668 l 1,3,-1
 1778 997 l 1,4,-1
 500 289 l 1,5,-1
 389 378 l 1,0,-1
EndSplineSet
Validated: 1
EndChar

StartChar: germandbls
Encoding: 223 223 26
Width: 2048
Flags: W
LayerCount: 2
Fore
SplineSet
1070 1776 m 0,0,1
 1394 1776 1394 1776 1625.5 1542.5 c 128,-1,2
 1857 1309 1857 1309 1857 981 c 0,3,4
 1857 653 1857 653 1625.5 420 c 128,-1,5
 1394 187 1394 187 1070 187 c 0,6,7
 744 187 744 187 513 420 c 128,-1,8
 282 653 282 653 282 981 c 0,9,10
 282 1309 282 1309 513 1542.5 c 128,-1,11
 744 1776 744 1776 1070 1776 c 0,0,1
983 1055 m 1,12,-1
 983 1488 l 1,13,-1
 1167 1488 l 1,14,-1
 1167 1055 l 1,15,-1
 1571 1055 l 1,16,-1
 1571 898 l 1,17,-1
 1167 898 l 1,18,-1
 1167 464 l 1,19,-1
 983 464 l 1,20,-1
 983 898 l 1,21,-1
 584 898 l 1,22,-1
 584 1055 l 1,23,-1
 983 1055 l 1,12,-1
1078 1634 m 0,24,25
 823 1634 823 1634 642 1443 c 128,-1,26
 461 1252 461 1252 461 984 c 0,27,28
 461 715 461 715 642 524.5 c 128,-1,29
 823 334 823 334 1078 334 c 0,30,31
 1333 334 1333 334 1514.5 524.5 c 128,-1,32
 1696 715 1696 715 1696 984 c 0,33,34
 1696 1252 1696 1252 1514.5 1443 c 128,-1,35
 1333 1634 1333 1634 1078 1634 c 0,24,25
EndSplineSet
Validated: 1
EndChar

StartChar: agrave
Encoding: 224 224 27
Width: 2048
Flags: W
LayerCount: 2
Fore
SplineSet
427 1830 m 1,0,-1
 429 261 l 1,1,-1
 1869 263 l 1,2,-1
 1868 108 l 1,3,-1
 254 108 l 1,4,-1
 253 1831 l 1,5,-1
 427 1830 l 1,0,-1
EndSplineSet
Validated: 1
EndChar

StartChar: aacute
Encoding: 225 225 28
Width: 2048
Flags: W
LayerCount: 2
Fore
SplineSet
1696 1830 m 1,0,-1
 1869 1831 l 1,1,-1
 1868 108 l 1,2,-1
 254 108 l 1,3,-1
 253 263 l 1,4,-1
 1693 261 l 1,5,-1
 1696 1830 l 1,0,-1
EndSplineSet
Validated: 1
EndChar

StartChar: AE
Encoding: 198 198 29
Width: 2048
Flags: W
LayerCount: 2
Fore
SplineSet
1718 1156 m 1,0,1
 1659 1156 1659 1156 1548.5 1152.5 c 128,-1,2
 1438 1149 1438 1149 1340 1151 c 1,3,4
 1393 1193 1393 1193 1444 1253.5 c 128,-1,5
 1495 1314 1495 1314 1519 1326 c 1,6,7
 1468 1438 1468 1438 1329.5 1460 c 128,-1,8
 1191 1482 1191 1482 1084 1485 c 1,9,10
 862 1464 862 1464 714 1340.5 c 128,-1,11
 566 1217 566 1217 554 928 c 1,12,13
 532 722 532 722 675.5 551.5 c 128,-1,14
 819 381 819 381 1095 381 c 1,15,16
 1413 436 1413 436 1535.5 575 c 128,-1,17
 1658 714 1658 714 1670 928 c 1,18,19
 1709 934 1709 934 1739.5 932 c 128,-1,20
 1770 930 1770 930 1791 936 c 1,21,22
 1802 659 1802 659 1583.5 460 c 128,-1,23
 1365 261 1365 261 1079 261 c 0,24,25
 791 261 791 261 587.5 459 c 128,-1,26
 384 657 384 657 384 936 c 0,27,28
 384 1215 384 1215 587.5 1421.5 c 128,-1,29
 791 1628 791 1628 1079 1628 c 1,30,31
 1172 1615 1172 1615 1299.5 1607.5 c 128,-1,32
 1427 1600 1427 1600 1577 1387 c 1,33,34
 1598 1415 1598 1415 1651.5 1486.5 c 128,-1,35
 1705 1558 1705 1558 1720 1576 c 1,36,37
 1720 1528 1720 1528 1720.5 1371.5 c 128,-1,38
 1721 1215 1721 1215 1718 1156 c 1,0,1
EndSplineSet
Validated: 33
EndChar

StartChar: Odieresis
Encoding: 214 214 30
Width: 2048
Flags: W
LayerCount: 2
Fore
SplineSet
959 442 m 1,0,-1
 959 1821 l 1,1,-1
 1162 1821 l 1,2,-1
 1162 443 l 1,3,-1
 1846 443 l 1,4,-1
 1846 295 l 1,5,-1
 316 295 l 1,6,-1
 316 443 l 1,7,-1
 959 442 l 1,0,-1
EndSplineSet
Validated: 1
EndChar

StartChar: Uacute
Encoding: 218 218 31
Width: 2048
Flags: W
LayerCount: 2
Fore
SplineSet
659 1379 m 0,0,1
 802 1379 802 1379 904.5 1276 c 128,-1,2
 1007 1173 1007 1173 1007 1029 c 0,3,4
 1007 884 1007 884 904.5 781.5 c 128,-1,5
 802 679 802 679 659 679 c 0,6,7
 515 679 515 679 412.5 781.5 c 128,-1,8
 310 884 310 884 310 1029 c 0,9,10
 310 1173 310 1173 412.5 1276 c 128,-1,11
 515 1379 515 1379 659 1379 c 0,0,1
658 1283 m 0,12,13
 553 1283 553 1283 479 1208 c 128,-1,14
 405 1133 405 1133 405 1028 c 0,15,16
 405 923 405 923 479 848.5 c 128,-1,17
 553 774 553 774 658 774 c 0,18,19
 762 774 762 774 836.5 848.5 c 128,-1,20
 911 923 911 923 911 1028 c 0,21,22
 911 1133 911 1133 836.5 1208 c 128,-1,23
 762 1283 762 1283 658 1283 c 0,12,13
1464 1364 m 0,24,25
 1607 1364 1607 1364 1709 1261 c 128,-1,26
 1811 1158 1811 1158 1811 1014 c 0,27,28
 1811 869 1811 869 1709 766.5 c 128,-1,29
 1607 664 1607 664 1464 664 c 0,30,31
 1320 664 1320 664 1217.5 766.5 c 128,-1,32
 1115 869 1115 869 1115 1014 c 0,33,34
 1115 1158 1115 1158 1217.5 1261 c 128,-1,35
 1320 1364 1320 1364 1464 1364 c 0,24,25
1463 1268 m 0,36,37
 1358 1268 1358 1268 1284 1193.5 c 128,-1,38
 1210 1119 1210 1119 1210 1014 c 0,39,40
 1210 908 1210 908 1284 833.5 c 128,-1,41
 1358 759 1358 759 1463 759 c 0,42,43
 1568 759 1568 759 1642 833.5 c 128,-1,44
 1716 908 1716 908 1716 1014 c 0,45,46
 1716 1119 1716 1119 1642 1193.5 c 128,-1,47
 1568 1268 1568 1268 1463 1268 c 0,36,37
EndSplineSet
Validated: 1
EndChar

StartChar: Ucircumflex
Encoding: 219 219 32
Width: 2048
Flags: W
LayerCount: 2
Fore
SplineSet
971 1097 m 1,0,-1
 1225 1097 l 1,1,-1
 1225 931 l 1,2,-1
 971 931 l 1,3,-1
 971 1097 l 1,0,-1
579 1430 m 0,4,5
 710 1430 710 1430 803.5 1314 c 128,-1,6
 897 1198 897 1198 897 1035 c 0,7,8
 897 872 897 872 803.5 756.5 c 128,-1,9
 710 641 710 641 579 641 c 0,10,11
 447 641 447 641 353.5 756.5 c 128,-1,12
 260 872 260 872 260 1035 c 0,13,14
 260 1198 260 1198 353.5 1314 c 128,-1,15
 447 1430 447 1430 579 1430 c 0,4,5
1605 1305 m 0,16,17
 1513 1305 1513 1305 1448 1221 c 128,-1,18
 1383 1137 1383 1137 1383 1018 c 0,19,20
 1383 899 1383 899 1448 815.5 c 128,-1,21
 1513 732 1513 732 1605 732 c 0,22,23
 1697 732 1697 732 1762.5 815.5 c 128,-1,24
 1828 899 1828 899 1828 1018 c 0,25,26
 1828 1137 1828 1137 1762.5 1221 c 128,-1,27
 1697 1305 1697 1305 1605 1305 c 0,16,17
1601 1413 m 0,28,29
 1735 1413 1735 1413 1830.5 1297 c 128,-1,30
 1926 1181 1926 1181 1926 1019 c 0,31,32
 1926 855 1926 855 1830.5 739.5 c 128,-1,33
 1735 624 1735 624 1601 624 c 0,34,35
 1466 624 1466 624 1370.5 739.5 c 128,-1,36
 1275 855 1275 855 1275 1019 c 0,37,38
 1275 1181 1275 1181 1370.5 1297 c 128,-1,39
 1466 1413 1466 1413 1601 1413 c 0,28,29
570 1322 m 0,40,41
 474 1322 474 1322 406 1237.5 c 128,-1,42
 338 1153 338 1153 338 1035 c 0,43,44
 338 916 338 916 406 832.5 c 128,-1,45
 474 749 474 749 570 749 c 0,46,47
 665 749 665 749 733 832.5 c 128,-1,48
 801 916 801 916 801 1035 c 0,49,50
 801 1153 801 1153 733 1237.5 c 128,-1,51
 665 1322 665 1322 570 1322 c 0,40,41
EndSplineSet
Validated: 1
EndChar

StartChar: Udieresis
Encoding: 220 220 33
Width: 2048
Flags: W
LayerCount: 2
Fore
SplineSet
1467 1399 m 0,0,1
 1467 1264 1467 1264 1349.5 1169.5 c 128,-1,2
 1232 1075 1232 1075 1067 1075 c 0,3,4
 902 1075 902 1075 784.5 1170 c 128,-1,5
 667 1265 667 1265 668 1400 c 0,6,7
 668 1534 668 1534 785.5 1629.5 c 128,-1,8
 903 1725 903 1725 1068 1725 c 0,9,10
 1233 1724 1233 1724 1350 1628.5 c 128,-1,11
 1467 1533 1467 1533 1467 1399 c 0,0,1
1358 1400 m 0,12,13
 1358 1497 1358 1497 1273 1566.5 c 128,-1,14
 1188 1636 1188 1636 1068 1636 c 0,15,16
 948 1636 948 1636 862.5 1567 c 128,-1,17
 777 1498 777 1498 777 1401 c 0,18,19
 777 1303 777 1303 861.5 1233.5 c 128,-1,20
 946 1164 946 1164 1067 1164 c 0,21,22
 1187 1164 1187 1164 1272 1233 c 128,-1,23
 1357 1302 1357 1302 1358 1400 c 0,12,13
1448 648 m 0,24,25
 1448 514 1448 514 1330.5 419 c 128,-1,26
 1213 324 1213 324 1048 324 c 0,27,28
 883 324 883 324 766 419 c 128,-1,29
 649 514 649 514 649 649 c 0,30,31
 649 783 649 783 766.5 878.5 c 128,-1,32
 884 974 884 974 1050 974 c 0,33,34
 1214 973 1214 973 1331 877.5 c 128,-1,35
 1448 782 1448 782 1448 648 c 0,24,25
1339 649 m 0,36,37
 1339 746 1339 746 1254 815.5 c 128,-1,38
 1169 885 1169 885 1049 885 c 0,39,40
 929 885 929 885 843.5 816 c 128,-1,41
 758 747 758 747 758 650 c 0,42,43
 758 552 758 552 843 482.5 c 128,-1,44
 928 413 928 413 1048 413 c 0,45,46
 1168 413 1168 413 1253.5 482 c 128,-1,47
 1339 551 1339 551 1339 649 c 0,36,37
EndSplineSet
Validated: 33
EndChar

StartChar: acircumflex
Encoding: 226 226 34
Width: 2048
Flags: W
LayerCount: 2
Fore
SplineSet
1169 1821 m 1,0,-1
 1332 1821 l 1,1,-1
 1332 255 l 1,2,-1
 1169 255 l 1,3,-1
 1169 1821 l 1,0,-1
784 1821 m 1,4,-1
 948 1821 l 1,5,-1
 948 255 l 1,6,-1
 784 255 l 1,7,-1
 784 1821 l 1,4,-1
EndSplineSet
Validated: 1
EndChar

StartChar: Idieresis
Encoding: 207 207 35
Width: 2048
Flags: W
LayerCount: 2
Fore
SplineSet
1826 103 m 1,0,1
 1438 103 1438 103 1031.5 103 c 128,-1,2
 625 103 625 103 238 103 c 1,3,4
 302 633 302 633 538.5 883 c 128,-1,5
 775 1133 775 1133 1044 1123 c 128,-1,6
 1313 1113 1313 1113 1543.5 853 c 128,-1,7
 1774 593 1774 593 1826 103 c 1,0,1
1663 223 m 1,8,9
 1617 596 1617 596 1439 788.5 c 128,-1,10
 1261 981 1261 981 1052.5 985 c 128,-1,11
 844 989 844 989 655.5 800 c 128,-1,12
 467 611 467 611 401 223 c 1,13,14
 698 223 698 223 1032 223 c 128,-1,15
 1366 223 1366 223 1663 223 c 1,8,9
EndSplineSet
Validated: 33
EndChar

StartChar: Eth
Encoding: 208 208 36
Width: 2048
Flags: W
LayerCount: 2
Fore
SplineSet
608 642 m 1,0,-1
 608 762 l 1,1,-1
 1468 762 l 2,2,3
 1470 762 1470 762 1474 769 c 1,4,-1
 1527 898 l 1,5,-1
 1473 1033 l 1,6,7
 1473 1035 1473 1035 1470.5 1037.5 c 128,-1,8
 1469 1039 1469 1039 1468 1040 c 2,9,-1
 602 1040 l 1,10,11
 576 994.5 l 130,-1,12
 550 949 550 949 526 895 c 1,13,14
 575 819 575 819 602 763 c 1,15,16
 600 721 600 721 601 687 c 128,-1,17
 602 653 602 653 602 641 c 1,18,-1
 629 430 l 1,19,-1
 266 876 l 1,20,-1
 661 1372 l 1,21,-1
 601 1150 l 1,22,-1
 1424 1152 l 1,23,-1
 1382 1378 l 1,24,-1
 1782 888 l 1,25,-1
 1387 408 l 1,26,-1
 1441 641 l 1,27,-1
 608 642 l 1,0,-1
EndSplineSet
Validated: 524321
EndChar

StartChar: atilde
Encoding: 227 227 37
Width: 2048
Flags: W
LayerCount: 2
Fore
SplineSet
1750 1141 m 1,0,-1
 1750 957 l 1,1,-1
 287 957 l 1,2,-1
 287 1141 l 1,3,-1
 1750 1141 l 1,0,-1
EndSplineSet
Validated: 1
EndChar

StartChar: Yacute
Encoding: 221 221 38
Width: 2048
Flags: W
LayerCount: 2
Fore
SplineSet
1309 593 m 0,0,1
 1309 704 1309 704 1223 783 c 128,-1,2
 1137 862 1137 862 1016 863 c 0,3,4
 895 863 895 863 809 784.5 c 128,-1,5
 723 706 723 706 723 595 c 0,6,7
 723 483 723 483 808 404 c 128,-1,8
 893 325 893 325 1015 325 c 0,9,10
 1135 325 1135 325 1221.5 403.5 c 128,-1,11
 1308 482 1308 482 1309 593 c 0,0,1
1419 593 m 0,12,13
 1419 440 1419 440 1300 331.5 c 128,-1,14
 1181 223 1181 223 1015 224 c 0,15,16
 848 224 848 224 730 332.5 c 128,-1,17
 612 441 612 441 612 594 c 0,18,19
 612 733 612 733 711.5 836.5 c 128,-1,20
 811 940 811 940 958 960 c 1,21,-1
 959 1322 l 1,22,-1
 780 1178 l 1,23,-1
 1016 1576 l 1,24,-1
 1230 1186 l 1,25,-1
 1074 1320 l 1,26,-1
 1074 960 l 1,27,28
 1220 940 1220 940 1319.5 836 c 128,-1,29
 1419 732 1419 732 1419 593 c 0,12,13
EndSplineSet
Validated: 33
EndChar

StartChar: SingularMove
Encoding: 61448 61448 39
Width: 2048
Flags: W
LayerCount: 2
Fore
SplineSet
254 108 m 1,0,-1
 254 1719 l 1,1,-1
 1874 1719 l 1,2,-1
 1874 108 l 1,3,-1
 254 108 l 1,0,-1
435 238 m 1,4,-1
 1699 238 l 1,5,-1
 1699 1584 l 1,6,-1
 435 1584 l 1,7,-1
 435 238 l 1,4,-1
EndSplineSet
Validated: 1
EndChar

StartChar: BlackModerateAdvantage
Encoding: 61457 61457 40
Width: 2048
Flags: W
LayerCount: 2
Fore
SplineSet
1004 1135 m 1,0,-1
 1123 1135 l 1,1,-1
 1123 125 l 1,2,-1
 1004 125 l 1,3,-1
 1004 1135 l 1,0,-1
445 724 m 1,4,-1
 1681 724 l 1,5,-1
 1681 641 l 1,6,-1
 445 641 l 1,7,-1
 445 724 l 1,4,-1
446 1424 m 1,8,-1
 1682 1424 l 1,9,-1
 1682 1328 l 1,10,-1
 446 1328 l 1,11,-1
 446 1424 l 1,8,-1
EndSplineSet
Validated: 5
EndChar

StartChar: WhiteZugzwang
Encoding: 61462 61462 41
Width: 2048
Flags: W
LayerCount: 2
Fore
SplineSet
1069 1481 m 0,0,1
 839 1481 839 1481 676.5 1322.5 c 128,-1,2
 514 1164 514 1164 514 942 c 0,3,4
 514 719 514 719 676.5 561 c 128,-1,5
 839 403 839 403 1069 403 c 0,6,7
 1299 403 1299 403 1462 561 c 128,-1,8
 1625 719 1625 719 1625 942 c 0,9,10
 1625 1164 1625 1164 1462 1322.5 c 128,-1,11
 1299 1481 1299 1481 1069 1481 c 0,0,1
1069 1611 m 0,12,13
 1359 1611 1359 1611 1565.5 1416 c 128,-1,14
 1772 1221 1772 1221 1772 947 c 0,15,16
 1772 673 1772 673 1565.5 478 c 128,-1,17
 1359 283 1359 283 1069 283 c 0,18,19
 779 283 779 283 573 478 c 128,-1,20
 367 673 367 673 367 947 c 0,21,22
 367 1221 367 1221 573 1416 c 128,-1,23
 779 1611 779 1611 1069 1611 c 0,12,13
1069 1061 m 0,24,25
 1126 1061 1126 1061 1167 1023.5 c 128,-1,26
 1208 986 1208 986 1208 933 c 0,27,28
 1208 880 1208 880 1167 843 c 128,-1,29
 1126 806 1126 806 1069 806 c 0,30,31
 1012 806 1012 806 971.5 843 c 128,-1,32
 931 880 931 880 931 933 c 0,33,34
 931 986 931 986 971.5 1023.5 c 128,-1,35
 1012 1061 1012 1061 1069 1061 c 0,24,25
EndSplineSet
Validated: 1
EndChar

StartChar: WhiteSlightSpaceAdvantage
Encoding: 61464 61464 42
Width: 2048
Flags: W
LayerCount: 2
Fore
SplineSet
1070 1611 m 0,0,1
 1359 1611 1359 1611 1565.5 1416 c 128,-1,2
 1772 1221 1772 1221 1772 947 c 0,3,4
 1772 673 1772 673 1565.5 478 c 128,-1,5
 1359 283 1359 283 1070 283 c 0,6,7
 779 283 779 283 573 478 c 128,-1,8
 367 673 367 673 367 947 c 0,9,10
 367 1221 367 1221 573 1416 c 128,-1,11
 779 1611 779 1611 1070 1611 c 0,0,1
1069 1481 m 0,12,13
 839 1481 839 1481 676.5 1322.5 c 128,-1,14
 514 1164 514 1164 514 942 c 0,15,16
 514 719 514 719 676.5 561 c 128,-1,17
 839 403 839 403 1069 403 c 0,18,19
 1299 403 1299 403 1462 561 c 128,-1,20
 1625 719 1625 719 1625 942 c 0,21,22
 1625 1164 1625 1164 1462 1322.5 c 128,-1,23
 1299 1481 1299 1481 1069 1481 c 0,12,13
EndSplineSet
Validated: 1
EndChar

StartChar: BlackSlightSpaceAdvantage
Encoding: 61465 61465 43
Width: 2048
Flags: W
LayerCount: 2
Fore
SplineSet
1070 1611 m 0,0,1
 1359 1611 1359 1611 1565.5 1416 c 128,-1,2
 1772 1221 1772 1221 1772 947 c 0,3,4
 1772 673 1772 673 1565.5 478 c 128,-1,5
 1359 283 1359 283 1070 283 c 0,6,7
 779 283 779 283 573 478 c 128,-1,8
 367 673 367 673 367 947 c 0,9,10
 367 1221 367 1221 573 1416 c 128,-1,11
 779 1611 779 1611 1070 1611 c 0,0,1
1069 1481 m 0,12,13
 839 1481 839 1481 676.5 1322.5 c 128,-1,14
 514 1164 514 1164 514 942 c 0,15,16
 514 719 514 719 676.5 561 c 128,-1,17
 839 403 839 403 1069 403 c 0,18,19
 1299 403 1299 403 1462 561 c 128,-1,20
 1625 719 1625 719 1625 942 c 0,21,22
 1625 1164 1625 1164 1462 1322.5 c 128,-1,23
 1299 1481 1299 1481 1069 1481 c 0,12,13
EndSplineSet
Validated: 1
EndChar

StartChar: WhiteModerateSpaceAdvantage
Encoding: 61466 61466 44
Width: 2048
Flags: W
LayerCount: 2
Fore
SplineSet
1070 1611 m 0,0,1
 1359 1611 1359 1611 1565.5 1416 c 128,-1,2
 1772 1221 1772 1221 1772 947 c 0,3,4
 1772 673 1772 673 1565.5 478 c 128,-1,5
 1359 283 1359 283 1070 283 c 0,6,7
 779 283 779 283 573 478 c 128,-1,8
 367 673 367 673 367 947 c 0,9,10
 367 1221 367 1221 573 1416 c 128,-1,11
 779 1611 779 1611 1070 1611 c 0,0,1
1069 1481 m 0,12,13
 839 1481 839 1481 676.5 1322.5 c 128,-1,14
 514 1164 514 1164 514 942 c 0,15,16
 514 719 514 719 676.5 561 c 128,-1,17
 839 403 839 403 1069 403 c 0,18,19
 1299 403 1299 403 1462 561 c 128,-1,20
 1625 719 1625 719 1625 942 c 0,21,22
 1625 1164 1625 1164 1462 1322.5 c 128,-1,23
 1299 1481 1299 1481 1069 1481 c 0,12,13
EndSplineSet
Validated: 1
EndChar

StartChar: BlackModerateSpaceAdvantage
Encoding: 61467 61467 45
Width: 2048
Flags: W
LayerCount: 2
Fore
SplineSet
1070 1611 m 0,0,1
 1359 1611 1359 1611 1565.5 1416 c 128,-1,2
 1772 1221 1772 1221 1772 947 c 0,3,4
 1772 673 1772 673 1565.5 478 c 128,-1,5
 1359 283 1359 283 1070 283 c 0,6,7
 779 283 779 283 573 478 c 128,-1,8
 367 673 367 673 367 947 c 0,9,10
 367 1221 367 1221 573 1416 c 128,-1,11
 779 1611 779 1611 1070 1611 c 0,0,1
1069 1481 m 0,12,13
 839 1481 839 1481 676.5 1322.5 c 128,-1,14
 514 1164 514 1164 514 942 c 0,15,16
 514 719 514 719 676.5 561 c 128,-1,17
 839 403 839 403 1069 403 c 0,18,19
 1299 403 1299 403 1462 561 c 128,-1,20
 1625 719 1625 719 1625 942 c 0,21,22
 1625 1164 1625 1164 1462 1322.5 c 128,-1,23
 1299 1481 1299 1481 1069 1481 c 0,12,13
EndSplineSet
Validated: 1
EndChar

StartChar: WhiteDecisiveSpaceAdvantage
Encoding: 61468 61468 46
Width: 2048
Flags: W
LayerCount: 2
Fore
SplineSet
1070 1611 m 0,0,1
 1359 1611 1359 1611 1565.5 1416 c 128,-1,2
 1772 1221 1772 1221 1772 947 c 0,3,4
 1772 673 1772 673 1565.5 478 c 128,-1,5
 1359 283 1359 283 1070 283 c 0,6,7
 779 283 779 283 573 478 c 128,-1,8
 367 673 367 673 367 947 c 0,9,10
 367 1221 367 1221 573 1416 c 128,-1,11
 779 1611 779 1611 1070 1611 c 0,0,1
1069 1481 m 0,12,13
 839 1481 839 1481 676.5 1322.5 c 128,-1,14
 514 1164 514 1164 514 942 c 0,15,16
 514 719 514 719 676.5 561 c 128,-1,17
 839 403 839 403 1069 403 c 0,18,19
 1299 403 1299 403 1462 561 c 128,-1,20
 1625 719 1625 719 1625 942 c 0,21,22
 1625 1164 1625 1164 1462 1322.5 c 128,-1,23
 1299 1481 1299 1481 1069 1481 c 0,12,13
EndSplineSet
Validated: 1
EndChar

StartChar: BlackDecisiveSpaceAdvantage
Encoding: 61469 61469 47
Width: 2048
Flags: W
LayerCount: 2
Fore
SplineSet
1070 1611 m 0,0,1
 1359 1611 1359 1611 1565.5 1416 c 128,-1,2
 1772 1221 1772 1221 1772 947 c 0,3,4
 1772 673 1772 673 1565.5 478 c 128,-1,5
 1359 283 1359 283 1070 283 c 0,6,7
 779 283 779 283 573 478 c 128,-1,8
 367 673 367 673 367 947 c 0,9,10
 367 1221 367 1221 573 1416 c 128,-1,11
 779 1611 779 1611 1070 1611 c 0,0,1
1069 1481 m 0,12,13
 839 1481 839 1481 676.5 1322.5 c 128,-1,14
 514 1164 514 1164 514 942 c 0,15,16
 514 719 514 719 676.5 561 c 128,-1,17
 839 403 839 403 1069 403 c 0,18,19
 1299 403 1299 403 1462 561 c 128,-1,20
 1625 719 1625 719 1625 942 c 0,21,22
 1625 1164 1625 1164 1462 1322.5 c 128,-1,23
 1299 1481 1299 1481 1069 1481 c 0,12,13
EndSplineSet
Validated: 1
EndChar
